<svg width="268" height="241" viewBox="0 0 268 241" fill="none" xmlns="http://www.w3.org/2000/svg">
<g clip-path="url(#clip0)">
<path d="M255.717 8.50464H137.357C130.842 8.50464 125.561 13.7858 125.561 20.3005V180.411C125.561 186.926 130.842 192.207 137.357 192.207H255.717C262.231 192.207 267.513 186.926 267.513 180.411V20.3005C267.513 13.7858 262.231 8.50464 255.717 8.50464Z" fill="#F2F2F2"/>
<path d="M248.913 0.154541H130.553C124.038 0.154541 118.757 5.43571 118.757 11.9504V172.061C118.757 178.576 124.038 183.857 130.553 183.857H248.913C255.428 183.857 260.709 178.576 260.709 172.061V11.9504C260.709 5.43571 255.428 0.154541 248.913 0.154541Z" stroke="#3F3D56" stroke-width="0.309263" stroke-miterlimit="10"/>
<path d="M252.204 19.1653H126.025V164.846H252.204V19.1653Z" stroke="#3F3D56" stroke-width="0.309263" stroke-miterlimit="10"/>
<path d="M189.733 12.6799C191.441 12.6799 192.826 11.2953 192.826 9.58726C192.826 7.87925 191.441 6.49463 189.733 6.49463C188.025 6.49463 186.64 7.87925 186.64 9.58726C186.64 11.2953 188.025 12.6799 189.733 12.6799Z" stroke="#3F3D56" stroke-width="0.309263" stroke-miterlimit="10"/>
<path d="M189.733 181.074C193.491 181.074 196.537 178.027 196.537 174.27C196.537 170.512 193.491 167.466 189.733 167.466C185.975 167.466 182.929 170.512 182.929 174.27C182.929 178.027 185.975 181.074 189.733 181.074Z" stroke="#3F3D56" stroke-width="0.309263" stroke-miterlimit="10"/>
<path d="M185.864 35.1221C183.143 35.1221 180.448 35.6581 177.934 36.6996C175.419 37.741 173.135 39.2675 171.21 41.1919C169.286 43.1163 167.76 45.4008 166.718 47.9151C165.677 50.4294 165.141 53.1242 165.141 55.8457C165.141 67.291 186.851 109.505 186.851 109.505C186.851 109.505 206.588 67.291 206.588 55.8457C206.588 50.3494 204.405 45.0783 200.518 41.1919C196.632 37.3054 191.361 35.1221 185.864 35.1221ZM185.864 69.6615C183.717 69.6615 181.619 69.0248 179.833 67.832C178.048 66.6392 176.657 64.9439 175.835 62.9604C175.014 60.9768 174.799 58.7942 175.218 56.6885C175.636 54.5828 176.67 52.6486 178.188 51.1304C179.707 49.6123 181.641 48.5784 183.747 48.1596C185.852 47.7407 188.035 47.9557 190.018 48.7773C192.002 49.5989 193.697 50.9902 194.89 52.7754C196.083 54.5605 196.72 56.6593 196.72 58.8062C196.72 61.6852 195.576 64.4463 193.54 66.482C191.504 68.5178 188.743 69.6615 185.864 69.6615V69.6615Z" fill="#6C63FF"/>
<path d="M185.867 130.664C197.311 130.664 206.588 127.618 206.588 123.86C206.588 120.102 197.311 117.056 185.867 117.056C174.423 117.056 165.146 120.102 165.146 123.86C165.146 127.618 174.423 130.664 185.867 130.664Z" fill="#6C63FF"/>
<path d="M111.917 29.676C110.598 29.7505 109.327 30.1907 108.245 30.9473C107.163 31.7039 106.313 32.747 105.79 33.9596C104.258 37.6627 106.231 42.0125 109.192 44.7128C112.153 47.4131 115.956 48.9566 119.412 50.9854C124.054 53.7104 128.225 57.4931 130.548 62.3489C132.87 67.2046 133.117 73.2195 130.387 77.8584C127.853 82.1641 123.246 84.741 118.851 87.1177" stroke="#3F3D56" stroke-width="0.309263" stroke-miterlimit="10"/>
<path d="M115.819 32.6273C118.808 32.6273 121.231 31.4504 121.231 29.9986C121.231 28.5468 118.808 27.3699 115.819 27.3699C112.83 27.3699 110.407 28.5468 110.407 29.9986C110.407 31.4504 112.83 32.6273 115.819 32.6273Z" fill="#57B894"/>
<path d="M120.149 49.9459C123.138 49.9459 125.561 48.769 125.561 47.3172C125.561 45.8654 123.138 44.6885 120.149 44.6885C117.16 44.6885 114.737 45.8654 114.737 47.3172C114.737 48.769 117.16 49.9459 120.149 49.9459Z" fill="#57B894"/>
<path d="M110.252 52.7294C113.241 52.7294 115.665 51.5525 115.665 50.1007C115.665 48.6488 113.241 47.4719 110.252 47.4719C107.263 47.4719 104.84 48.6488 104.84 50.1007C104.84 51.5525 107.263 52.7294 110.252 52.7294Z" fill="#57B894"/>
<path d="M125.716 67.2648C128.705 67.2648 131.128 66.0879 131.128 64.6361C131.128 63.1842 128.705 62.0073 125.716 62.0073C122.727 62.0073 120.303 63.1842 120.303 64.6361C120.303 66.0879 122.727 67.2648 125.716 67.2648Z" fill="#57B894"/>
<path d="M136.54 67.2648C139.529 67.2648 141.952 66.0879 141.952 64.6361C141.952 63.1842 139.529 62.0073 136.54 62.0073C133.551 62.0073 131.128 63.1842 131.128 64.6361C131.128 66.0879 133.551 67.2648 136.54 67.2648Z" fill="#57B894"/>
<path d="M14.6873 240.781H125.561" stroke="#3F3D56" stroke-width="0.309263" stroke-miterlimit="10"/>
<path d="M10.6212 187.204C9.3936 187.273 8.2096 187.683 7.20195 188.388C6.19429 189.092 5.40281 190.064 4.91625 191.193C3.48972 194.641 5.32648 198.692 8.08379 201.206C10.8411 203.721 14.383 205.158 17.6012 207.047C21.9236 209.585 25.8078 213.107 27.9705 217.629C30.1333 222.15 30.3634 227.751 27.8211 232.071C25.4615 236.081 21.1708 238.48 17.0787 240.693" stroke="#3F3D56" stroke-width="0.309263" stroke-miterlimit="10"/>
<path d="M14.2553 189.952C17.0386 189.952 19.295 188.856 19.295 187.504C19.295 186.152 17.0386 185.056 14.2553 185.056C11.4719 185.056 9.21558 186.152 9.21558 187.504C9.21558 188.856 11.4719 189.952 14.2553 189.952Z" fill="#57B894"/>
<path d="M18.287 206.079C21.0704 206.079 23.3267 204.983 23.3267 203.631C23.3267 202.279 21.0704 201.183 18.287 201.183C15.5037 201.183 13.2473 202.279 13.2473 203.631C13.2473 204.983 15.5037 206.079 18.287 206.079Z" fill="#57B894"/>
<path d="M9.07145 208.671C11.8548 208.671 14.1112 207.575 14.1112 206.223C14.1112 204.871 11.8548 203.775 9.07145 203.775C6.28809 203.775 4.03174 204.871 4.03174 206.223C4.03174 207.575 6.28809 208.671 9.07145 208.671Z" fill="#57B894"/>
<path d="M23.4709 222.206C26.2542 222.206 28.5106 221.11 28.5106 219.758C28.5106 218.406 26.2542 217.311 23.4709 217.311C20.6875 217.311 18.4312 218.406 18.4312 219.758C18.4312 221.11 20.6875 222.206 23.4709 222.206Z" fill="#57B894"/>
<path d="M33.5502 222.206C36.3336 222.206 38.5899 221.11 38.5899 219.758C38.5899 218.406 36.3336 217.311 33.5502 217.311C30.7669 217.311 28.5105 218.406 28.5105 219.758C28.5105 221.11 30.7669 222.206 33.5502 222.206Z" fill="#57B894"/>
<path d="M22.8411 197.094C23.8437 197.151 24.8106 197.485 25.6335 198.061C26.4564 198.636 27.1028 199.429 27.5002 200.352C28.6652 203.168 27.1652 206.476 24.9133 208.529C22.6615 210.583 19.769 211.756 17.1408 213.299C13.6108 215.371 10.4388 218.248 8.67249 221.941C6.90621 225.634 6.71834 230.208 8.79453 233.735C10.7216 237.01 14.2256 238.97 17.5675 240.777" stroke="#3F3D56" stroke-width="0.309263" stroke-miterlimit="10"/>
<path d="M19.8733 199.338C22.1464 199.338 23.9891 198.443 23.9891 197.339C23.9891 196.235 22.1464 195.34 19.8733 195.34C17.6003 195.34 15.7576 196.235 15.7576 197.339C15.7576 198.443 17.6003 199.338 19.8733 199.338Z" fill="#57B894"/>
<path d="M16.5809 212.509C18.8539 212.509 20.6966 211.614 20.6966 210.51C20.6966 209.406 18.8539 208.51 16.5809 208.51C14.3078 208.51 12.4651 209.406 12.4651 210.51C12.4651 211.614 14.3078 212.509 16.5809 212.509Z" fill="#57B894"/>
<path d="M24.1067 214.625C26.3798 214.625 28.2225 213.73 28.2225 212.626C28.2225 211.522 26.3798 210.627 24.1067 210.627C21.8337 210.627 19.991 211.522 19.991 212.626C19.991 213.73 21.8337 214.625 24.1067 214.625Z" fill="#57B894"/>
<path d="M12.3475 225.679C14.6205 225.679 16.4632 224.784 16.4632 223.68C16.4632 222.576 14.6205 221.681 12.3475 221.681C10.0744 221.681 8.23169 222.576 8.23169 223.68C8.23169 224.784 10.0744 225.679 12.3475 225.679Z" fill="#57B894"/>
<path d="M4.11577 225.679C6.38884 225.679 8.23153 224.784 8.23153 223.68C8.23153 222.576 6.38884 221.681 4.11577 221.681C1.84269 221.681 0 222.576 0 223.68C0 224.784 1.84269 225.679 4.11577 225.679Z" fill="#57B894"/>
<path d="M40.1566 228.083C40.1566 228.083 43.0365 229.523 45.0523 229.811C47.0682 230.099 48.2021 228.06 47.7792 227.351C47.3562 226.643 49.0841 227.219 50.236 229.811C50.236 229.811 55.1318 235.57 58.0116 235.858C60.8914 236.146 60.9139 240.045 59.4515 240.178C57.8676 240.322 55.1318 241.33 51.676 240.178C48.2202 239.026 45.0524 235.858 43.6124 235.858C42.1725 235.858 37.2768 233.555 38.7167 232.403C40.1566 231.251 40.1566 228.083 40.1566 228.083Z" fill="#3F3D56"/>
<path d="M68.54 234.59C70.0102 234.703 71.4889 234.612 72.9342 234.32C74.9129 233.839 75.2089 231.525 74.5533 231.024C73.8976 230.523 75.7158 230.417 77.7475 232.396C77.7475 232.396 84.4314 235.927 87.2124 235.125C89.9934 234.324 91.4615 237.936 90.1529 238.602C87.9338 239.819 85.467 240.515 82.9392 240.637C79.3027 240.85 75.179 239.935 73.8419 240.47C72.5049 241.004 67.1038 240.682 68.0132 239.078C68.9227 237.474 68.54 234.59 68.54 234.59Z" fill="#3F3D56"/>
<path d="M63.6444 97.2215C69.8473 97.2215 74.8758 92.1931 74.8758 85.9901C74.8758 79.7872 69.8473 74.7588 63.6444 74.7588C57.4415 74.7588 52.4131 79.7872 52.4131 85.9901C52.4131 92.1931 57.4415 97.2215 63.6444 97.2215Z" fill="#FFC1C7"/>
<path d="M54.861 90.4538C54.861 90.4538 56.5889 102.549 52.5571 104.277C48.5254 106.005 73.004 105.429 73.004 105.429C73.004 105.429 69.5481 94.4856 70.4121 91.6057C71.276 88.7259 54.861 90.4538 54.861 90.4538Z" fill="#FFC1C7"/>
<path d="M50.8291 159.282C50.8291 159.282 49.9652 181.169 49.1012 183.472C48.2373 185.776 47.3733 201.327 47.3733 201.327L39.8857 229.55L46.7973 231.854C46.7973 231.854 56.3008 215.151 57.4527 213.135C58.6047 211.119 67.8202 178.865 67.8202 178.865C67.8202 178.865 66.9562 198.736 66.9562 205.359C66.9562 211.983 68.6841 236.173 68.6841 236.173L74.1558 235.597L81.3554 205.071C81.3554 205.071 91.7228 163.89 84.8112 159.282C77.8996 154.674 50.8291 159.282 50.8291 159.282Z" fill="#2F2E41"/>
<path d="M92.8746 166.194C92.8746 166.194 93.1626 182.897 89.7068 180.305C86.251 177.713 89.7068 164.754 89.7068 164.754L92.8746 166.194Z" fill="#FFC1C7"/>
<path d="M45.0695 160.434C45.0695 160.434 45.3574 177.137 41.9016 174.545C38.4458 171.953 41.9016 158.994 41.9016 158.994L45.0695 160.434Z" fill="#FFC1C7"/>
<path d="M87.403 111.765C87.403 111.765 81.6434 105.141 76.7476 106.005C71.8519 106.869 45.0694 106.581 45.0694 106.581C45.0694 106.581 36.1419 117.812 38.4458 120.116C40.7497 122.42 48.2373 163.314 48.2373 163.314C48.2373 163.314 68.1081 160.722 75.0197 160.722C81.9313 160.722 84.8112 159.57 84.8112 159.57C84.8112 159.57 75.5957 141.139 79.9154 132.787C84.2352 124.436 90.5708 115.508 90.5708 115.508L87.403 111.765Z" fill="#6C63FF"/>
<path d="M85.6752 113.781L90.5709 115.508C90.5709 115.508 93.4507 125.588 93.4507 133.651C93.4507 141.715 93.7387 145.747 94.8906 148.627C96.0426 151.506 99.7864 165.042 97.7705 167.921C96.6574 169.561 95.2974 171.018 93.7387 172.241L87.1151 171.665C87.1151 171.665 86.8271 162.162 85.0992 161.298C83.3713 160.434 81.0674 154.962 81.0674 154.962C81.0674 154.962 75.5957 137.395 79.0515 131.635C82.5073 125.876 85.6752 113.781 85.6752 113.781Z" fill="#6C63FF"/>
<path d="M67.2442 124.436C67.2442 124.436 70.124 111.765 64.6523 112.341C59.1807 112.917 51.6931 113.205 49.6772 113.205C47.6613 113.205 36.142 111.765 34.4141 119.252C32.6862 126.74 30.3823 135.955 35.278 141.715C35.278 141.715 37.0059 167.057 43.6295 168.785C50.2532 170.513 67.8202 172.529 74.1558 164.178C80.4914 155.826 77.8996 146.611 77.8996 146.611H75.0197L67.2442 124.436Z" fill="#3F3D56"/>
<path d="M76.7478 147.187L79.0515 131.635L77.8998 147.762L76.7478 147.187Z" fill="#3F3D56"/>
<path opacity="0.1" d="M38.158 143.731C38.158 143.731 43.0537 146.035 53.1331 144.595V148.914L38.158 147.762V143.731Z" fill="black"/>
<path d="M64.5083 112.197L71.9959 108.165L65.6603 113.637L64.5083 112.197Z" fill="#3F3D56"/>
<path d="M80.4915 108.021C80.4915 108.021 86.2512 110.037 86.2512 108.021C86.2512 106.005 81.0675 104.277 77.8997 103.125C74.7318 101.973 59.7567 100.245 57.4528 99.3812C55.149 98.5172 44.2056 97.0773 43.3416 100.533C42.4777 103.989 42.1897 111.188 46.5095 112.052C50.8292 112.916 62.0606 110.613 67.8202 111.188C73.5799 111.764 80.4915 108.021 80.4915 108.021Z" fill="#6C63FF"/>
<path opacity="0.1" d="M80.4915 108.021C80.4915 108.021 86.2512 110.037 86.2512 108.021C86.2512 106.005 81.0675 104.277 77.8997 103.125C74.7318 101.973 59.7567 100.245 57.4528 99.3812C55.149 98.5172 44.2056 97.0773 43.3416 100.533C42.4777 103.989 42.1897 111.188 46.5095 112.052C50.8292 112.916 62.0606 110.613 67.8202 111.188C73.5799 111.764 80.4915 108.021 80.4915 108.021Z" fill="black"/>
<path d="M40.3179 114.5L42.2752 110.389L42.6219 115.364L40.3179 114.5Z" fill="#3F3D56"/>
<path d="M61.698 97.5824C67.5053 97.5824 72.213 92.1132 72.213 85.3665C72.213 78.6199 67.5053 73.1506 61.698 73.1506C55.8908 73.1506 51.1831 78.6199 51.1831 85.3665C51.1831 92.1132 55.8908 97.5824 61.698 97.5824Z" fill="#2F2E41"/>
<path d="M63.5535 85.5212C69.3608 85.5212 74.0685 82.5443 74.0685 78.8721C74.0685 75.1998 69.3608 72.2229 63.5535 72.2229C57.7463 72.2229 53.0386 75.1998 53.0386 78.8721C53.0386 82.5443 57.7463 85.5212 63.5535 85.5212Z" fill="#2F2E41"/>
<path d="M71.7492 90.7788C72.347 90.7788 72.8316 89.948 72.8316 88.9232C72.8316 87.8984 72.347 87.0676 71.7492 87.0676C71.1514 87.0676 70.6667 87.8984 70.6667 88.9232C70.6667 89.948 71.1514 90.7788 71.7492 90.7788Z" fill="#FFC1C7"/>
<path d="M70.2395 77.1977C71.3456 76.5923 72.2906 75.4978 72.9981 74.0024C73.0673 74.3349 73.0859 74.6759 73.0533 75.0139C73.5126 74.9621 73.9587 74.8276 74.3701 74.6169L74.2714 75.6948C75.0661 75.208 75.7964 74.6233 76.4451 73.9543C76.621 75.527 76.3575 77.1176 75.6837 78.5495C75.11 79.6824 74.3302 80.4193 73.5587 81.1451" fill="#2F2E41"/>
</g>
<defs>
<clipPath id="clip0">
<rect width="267.513" height="240.936" fill="white"/>
</clipPath>
</defs>
</svg>
