<svg width="215" height="148" viewBox="0 0 215 148" fill="none" xmlns="http://www.w3.org/2000/svg">
<g opacity="0.8" clip-path="url(#clip0)">
<path d="M65.9564 64.3138C65.9564 89.1502 51.1915 97.8221 32.9782 97.8221C14.7648 97.8221 0 89.1502 0 64.3138C0 39.4774 32.9782 7.88159 32.9782 7.88159C32.9782 7.88159 65.9564 39.4774 65.9564 64.3138Z" fill="#00BF71"/>
<path d="M31.7768 94.0229L32.1145 73.237L46.1706 47.522L32.1675 69.9764L32.3192 60.6302L42.0067 42.0256L32.3596 58.157L32.6325 41.3474L43.0061 26.5359L32.6755 38.7041L32.8461 7.88147L31.7739 48.6851L31.8619 47.0018L21.3151 30.8582L31.6929 50.2332L30.7101 69.0065L30.6809 68.5081L18.5222 51.5193L30.644 70.2684L30.5211 72.6162L30.4992 72.6516L30.5092 72.8444L28.0159 120.474H31.3472L31.7469 95.8722L43.8389 77.169L31.7768 94.0229Z" fill="#3F3D56"/>
<path d="M214.099 123.575C214.099 132.167 169.899 147.391 115.376 147.391C60.8531 147.391 16.6533 132.167 16.6533 123.575C16.6533 114.983 60.8531 116.276 115.376 116.276C169.899 116.276 214.099 114.983 214.099 123.575Z" fill="#3F3D56"/>
<path opacity="0.1" d="M214.099 123.575C214.099 132.167 169.899 147.391 115.376 147.391C60.8531 147.391 16.6533 132.167 16.6533 123.575C16.6533 114.983 60.8531 116.276 115.376 116.276C169.899 116.276 214.099 114.983 214.099 123.575Z" fill="black"/>
<path d="M115.376 139.132C169.899 139.132 214.099 132.167 214.099 123.575C214.099 114.983 169.899 108.017 115.376 108.017C60.8531 108.017 16.6533 114.983 16.6533 123.575C16.6533 132.167 60.8531 139.132 115.376 139.132Z" fill="#3F3D56"/>
<path opacity="0.1" d="M118.967 130.681C131.908 130.681 142.399 128.488 142.399 125.783C142.399 123.079 131.908 120.886 118.967 120.886C106.026 120.886 95.5349 123.079 95.5349 125.783C95.5349 128.488 106.026 130.681 118.967 130.681Z" fill="black"/>
<path d="M92.2689 27.7763C97.4194 27.7763 101.595 23.601 101.595 18.4505C101.595 13.3001 97.4194 9.12476 92.2689 9.12476C87.1184 9.12476 82.9431 13.3001 82.9431 18.4505C82.9431 23.601 87.1184 27.7763 92.2689 27.7763Z" fill="#2F2E41"/>
<path opacity="0.3" d="M74.2459 18.9204C75.8896 18.9204 77.2222 17.5879 77.2222 15.9441C77.2222 14.3003 75.8896 12.9678 74.2459 12.9678C72.6021 12.9678 71.2695 14.3003 71.2695 15.9441C71.2695 17.5879 72.6021 18.9204 74.2459 18.9204Z" fill="#2F2E41"/>
<path opacity="0.5" d="M78.4702 12.4366C80.114 12.4366 81.4465 11.1041 81.4465 9.46032C81.4465 7.81655 80.114 6.48401 78.4702 6.48401C76.8264 6.48401 75.4939 7.81655 75.4939 9.46032C75.4939 11.1041 76.8264 12.4366 78.4702 12.4366Z" fill="#2F2E41"/>
<path d="M82.6946 5.95299C84.3383 5.95299 85.6709 4.62045 85.6709 2.97668C85.6709 1.33291 84.3383 0.000366211 82.6946 0.000366211C81.0508 0.000366211 79.7183 1.33291 79.7183 2.97668C79.7183 4.62045 81.0508 5.95299 82.6946 5.95299Z" fill="#2F2E41"/>
<path opacity="0.3" d="M82.6946 5.95299C84.3383 5.95299 85.6709 4.62045 85.6709 2.97668C85.6709 1.33291 84.3383 0.000366211 82.6946 0.000366211C81.0508 0.000366211 79.7183 1.33291 79.7183 2.97668C79.7183 4.62045 81.0508 5.95299 82.6946 5.95299Z" fill="white"/>
<path d="M92.0441 72.6198C97.1945 72.6198 101.37 68.4445 101.37 63.2941C101.37 58.1436 97.1945 53.9683 92.0441 53.9683C86.8936 53.9683 82.7183 58.1436 82.7183 63.2941C82.7183 68.4445 86.8936 72.6198 92.0441 72.6198Z" fill="#6C63FF"/>
<path opacity="0.3" d="M85.1279 83.1013C86.7717 83.1013 88.1042 81.7688 88.1042 80.125C88.1042 78.4812 86.7717 77.1487 85.1279 77.1487C83.4842 77.1487 82.1516 78.4812 82.1516 80.125C82.1516 81.7688 83.4842 83.1013 85.1279 83.1013Z" fill="#6C63FF"/>
<path opacity="0.5" d="M79.9006 77.3954C81.5444 77.3954 82.8769 76.0628 82.8769 74.4191C82.8769 72.7753 81.5444 71.4427 79.9006 71.4427C78.2569 71.4427 76.9243 72.7753 76.9243 74.4191C76.9243 76.0628 78.2569 77.3954 79.9006 77.3954Z" fill="#6C63FF"/>
<path d="M74.6733 71.6894C76.3171 71.6894 77.6497 70.3569 77.6497 68.7131C77.6497 67.0694 76.3171 65.7368 74.6733 65.7368C73.0296 65.7368 71.697 67.0694 71.697 68.7131C71.697 70.3569 73.0296 71.6894 74.6733 71.6894Z" fill="#6C63FF"/>
<path opacity="0.3" d="M74.6733 71.6894C76.3171 71.6894 77.6497 70.3569 77.6497 68.7131C77.6497 67.0694 76.3171 65.7368 74.6733 65.7368C73.0296 65.7368 71.697 67.0694 71.697 68.7131C71.697 70.3569 73.0296 71.6894 74.6733 71.6894Z" fill="white"/>
<path d="M107.075 114.324C107.075 114.324 107.018 117.653 106.734 118.535C106.449 119.417 106.734 120.527 106.734 120.527L105.653 123.372H109.494C109.494 123.372 110.404 119.218 110.404 118.848C110.404 118.478 109.863 115.349 109.863 115.349L107.075 114.324Z" fill="#FFB9B9"/>
<path d="M110.034 123.144C110.034 123.144 109.067 120.498 104.97 123.144C104.97 123.144 103.348 125.534 104.259 126.274C105.169 127.013 106.734 128.009 108.043 127.44C109.352 126.871 109.864 126.245 110.034 125.079C110.141 124.438 110.141 123.785 110.034 123.144Z" fill="#2F2E41"/>
<path d="M127.787 114.324C127.787 114.324 127.844 117.653 128.129 118.535C128.413 119.417 128.129 120.527 128.129 120.527L129.21 123.372H125.369C125.369 123.372 124.458 119.218 124.458 118.848C124.458 118.478 124.999 115.349 124.999 115.349L127.787 114.324Z" fill="#FFB9B9"/>
<path d="M124.828 123.144C124.828 123.144 125.796 120.498 129.893 123.144C129.893 123.144 131.514 125.534 130.604 126.274C129.693 127.013 128.129 128.009 126.82 127.44C125.511 126.871 124.999 126.245 124.828 125.079C124.721 124.438 124.721 123.785 124.828 123.144Z" fill="#2F2E41"/>
<path d="M106.108 51.6197C106.108 51.6197 108.896 55.4605 109.238 56.6839C109.579 57.9073 111.713 57.7935 111.571 56.6839C111.428 55.5743 107.701 49.6282 107.701 49.6282L106.108 51.6197Z" fill="#FFB9B9"/>
<path d="M128.641 50.3678C128.641 50.3678 124.715 57.0252 125.71 57.7649C126.706 58.5046 130.49 51.961 130.49 51.961L128.641 50.3678Z" fill="#FFB9B9"/>
<path d="M124.971 55.5742H118.484C117.289 55.5742 113.363 55.8872 112.737 55.5742C112.111 55.2613 109.778 55.2897 109.778 55.2897C109.778 55.2897 105.027 66.1578 106.307 74.8352C107.587 83.5126 103.604 113.528 105.482 114.438C107.36 115.349 109.038 116.487 110.66 116.544C112.282 116.6 115.298 115.889 115.639 115.406C115.98 114.922 117.659 72.7583 117.659 72.7583C117.659 72.7583 118.256 114.353 119.366 115.292C120.476 116.231 123.662 116.857 125.654 116.544C127.645 116.231 129.693 115.121 130.092 114.381C130.49 113.642 128.698 92.759 128.698 92.759C128.698 92.759 131.457 60.6953 126.905 56.6838L124.971 55.5742Z" fill="#2F2E41"/>
<path d="M115.44 22.5432C115.44 22.5432 116.862 27.2091 114.046 28.5463C111.229 29.8834 116.464 40.78 116.464 40.78C116.464 40.78 123.776 31.4198 123.776 29.3713L122.552 28.148C122.552 28.148 120.163 24.1364 120.902 22.8846C121.642 21.6328 115.44 22.5432 115.44 22.5432Z" fill="#FFB9B9"/>
<path opacity="0.1" d="M115.44 22.5432C115.44 22.5432 116.862 27.2091 114.046 28.5463C111.229 29.8834 116.464 40.78 116.464 40.78C116.464 40.78 123.776 31.4198 123.776 29.3713L122.552 28.148C122.552 28.148 120.163 24.1364 120.902 22.8846C121.642 21.6328 115.44 22.5432 115.44 22.5432Z" fill="black"/>
<path d="M117.517 38.4471C117.517 38.4471 115.81 33.9804 116.009 32.3018C116.208 30.6232 115.735 27.8786 115.004 27.8C114.273 27.7213 106.762 30.168 105.994 30.6801C105.226 31.1922 104.543 41.6051 104.543 41.6051L107.9 49.3436C107.9 49.3436 108.185 55.6881 109.778 55.9726C111.371 56.2571 126.422 57.0537 126.905 56.5131C127.389 55.9726 132.339 41.2068 132.339 41.2068L133.449 32.5578C133.449 32.5578 132.055 30.8224 130.575 30.4241C129.096 30.0258 124.316 28.3187 123.776 28.2618C123.235 28.2049 121.528 28.5179 121.386 29.03C121.244 29.5421 117.517 38.4471 117.517 38.4471Z" fill="#D0CDE1"/>
<path d="M118.498 25.5164C121.719 25.5164 124.331 22.9051 124.331 19.684C124.331 16.4629 121.719 13.8517 118.498 13.8517C115.277 13.8517 112.666 16.4629 112.666 19.684C112.666 22.9051 115.277 25.5164 118.498 25.5164Z" fill="#FFB9B9"/>
<path d="M120.507 8.90206C119.415 7.58484 117.184 7.44241 115.933 8.61015C115.596 8.925 115.33 9.31196 114.978 9.61036C114.636 9.87999 114.257 10.0985 113.852 10.259C112.518 10.8428 111.102 11.2576 109.858 12.0139C108.614 12.7702 107.524 13.9671 107.37 15.4147C107.289 16.1803 107.473 16.9627 107.333 17.7199C107.113 18.9066 106.16 19.792 105.362 20.6973C104.604 21.5573 103.922 22.7829 104.464 23.793C104.925 24.6521 106.056 24.907 106.691 25.6469C107.425 26.501 107.331 27.7939 106.968 28.8595C106.604 29.9252 106.014 30.9265 105.864 32.0423C105.618 33.879 106.628 35.6793 107.942 36.9856C108.543 37.5834 109.235 38.1223 110.047 38.3673C110.66 38.5382 111.306 38.546 111.922 38.39C112.539 38.2341 113.104 37.9197 113.561 37.4781C114.009 37.0271 114.344 36.4767 114.539 35.8716C114.734 35.2666 114.783 34.624 114.683 33.9964C114.572 33.3066 114.288 32.6295 114.362 31.9348C114.513 30.5078 116.07 29.6076 116.439 28.2208C116.816 26.8018 115.863 25.4197 115.303 24.0626C114.596 22.351 114.496 20.4557 114.479 18.6039C114.47 17.5445 114.579 16.3039 115.472 15.7335C116.055 15.3608 116.798 15.4017 117.488 15.3506C118.293 15.2911 119.095 15.0894 119.898 15.1638C120.702 15.2382 121.551 15.683 121.77 16.4602C122.014 17.3304 121.396 18.214 121.402 19.1179C121.405 19.561 121.559 19.9929 121.562 20.4361C121.57 21.7233 120.377 22.6433 119.708 23.7431C119.251 24.5285 119.042 25.4343 119.111 26.3406C119.18 27.247 119.522 28.1112 120.092 28.8188C120.774 29.632 121.801 30.2969 121.919 31.3513C121.985 31.9427 121.736 32.5168 121.586 33.0927C121.437 33.6687 121.412 34.3566 121.831 34.7796C122.115 35.0664 122.536 35.1609 122.936 35.2141C123.967 35.3505 125.013 35.2997 126.026 35.0642C126.287 35.0231 126.532 34.9124 126.736 34.7437C127.238 34.2566 126.924 33.3931 127.156 32.7327C127.383 32.0874 128.089 31.7507 128.751 31.578C129.413 31.4054 130.128 31.3144 130.668 30.8943C131.268 30.4273 131.531 29.6215 131.497 28.862C131.463 28.1024 131.17 27.3785 130.829 26.6992C130.749 26.5752 130.71 26.4291 130.718 26.2817C130.784 25.8902 131.343 25.924 131.74 25.9192C132.788 25.9065 133.592 24.833 133.621 23.7855C133.65 22.738 133.092 21.7606 132.426 20.9518C131.759 20.1429 130.967 19.4358 130.383 18.5659C129.384 17.0785 129.037 15.1809 127.823 13.8628C127.232 13.2321 126.476 12.78 125.641 12.5579C124.997 12.383 124.031 12.602 123.53 12.1437C123.334 11.9648 123.25 11.6761 123.059 11.4858C122.747 11.1765 122.321 11.0855 121.971 10.8354C121.299 10.3549 121.02 9.52122 120.507 8.90206Z" fill="#2F2E41"/>
<path d="M107.075 30.9077L105.994 30.6801C105.994 30.6801 92.5656 41.2921 91.9112 42.6577C91.2568 44.0233 89.4929 45.2467 93.2199 47.4658C96.9469 49.685 106.136 53.2697 106.136 53.2697L108.27 49.4858L97.8289 44.1087C97.8289 44.1087 100.247 40.6946 105.283 41.4628L107.075 30.9077Z" fill="#D0CDE1"/>
<path d="M132.51 32.1311L133.449 32.5579C133.449 32.5579 147.589 42.7716 145.91 45.3321C144.232 47.8927 130.576 53.9811 130.576 53.9811L128.157 50.1687C128.157 50.1687 128.345 50.08 128.667 49.926C130.705 48.9527 138.13 45.3708 137.688 45.0761C137.176 44.7347 132.88 40.9223 131.685 40.78C130.49 40.6378 132.51 32.1311 132.51 32.1311Z" fill="#D0CDE1"/>
<path d="M145.871 75.0391C151.021 75.0391 155.197 70.8639 155.197 65.7134C155.197 60.5629 151.021 56.3876 145.871 56.3876C140.72 56.3876 136.545 60.5629 136.545 65.7134C136.545 70.8639 140.72 75.0391 145.871 75.0391Z" fill="#FF6584"/>
<path d="M152.78 85.5234C154.424 85.5234 155.757 84.1909 155.757 82.5471C155.757 80.9033 154.424 79.5708 152.78 79.5708C151.137 79.5708 149.804 80.9033 149.804 82.5471C149.804 84.1909 151.137 85.5234 152.78 85.5234Z" fill="#FF6584"/>
<path opacity="0.3" d="M152.78 85.5234C154.424 85.5234 155.757 84.1909 155.757 82.5471C155.757 80.9033 154.424 79.5708 152.78 79.5708C151.137 79.5708 149.804 80.9033 149.804 82.5471C149.804 84.1909 151.137 85.5234 152.78 85.5234Z" fill="white"/>
<path opacity="0.5" d="M158.01 79.8196C159.654 79.8196 160.986 78.487 160.986 76.8433C160.986 75.1995 159.654 73.8669 158.01 73.8669C156.366 73.8669 155.033 75.1995 155.033 76.8433C155.033 78.487 156.366 79.8196 158.01 79.8196Z" fill="#FF6584"/>
<path opacity="0.3" d="M163.239 74.1157C164.883 74.1157 166.216 72.7832 166.216 71.1394C166.216 69.4956 164.883 68.1631 163.239 68.1631C161.596 68.1631 160.263 69.4956 160.263 71.1394C160.263 72.7832 161.596 74.1157 163.239 74.1157Z" fill="#FF6584"/>
<path d="M202.325 106.958C202.325 118.445 195.497 122.455 187.072 122.455C186.878 122.455 186.683 122.453 186.49 122.448C186.099 122.44 185.713 122.422 185.33 122.393C177.728 121.858 171.822 117.642 171.822 106.958C171.822 95.9001 185.961 81.9413 187.011 80.9205L187.013 80.9185C187.052 80.8795 187.072 80.8611 187.072 80.8611C187.072 80.8611 202.325 95.4737 202.325 106.958Z" fill="#00BF71"/>
<path d="M186.517 120.698L192.096 112.905L186.505 121.553L186.49 122.448C186.099 122.44 185.713 122.422 185.33 122.393L185.931 110.904L185.927 110.814L185.937 110.798L185.994 109.713L180.388 101.043L186.011 108.9L186.025 109.129L186.478 100.446L181.68 91.487L186.537 98.9214L187.011 80.9205L187.013 80.8611V80.9185L186.933 95.115L191.711 89.4885L186.913 96.3387L186.787 104.111L191.248 96.6523L186.769 105.255L186.699 109.578L193.175 99.194L186.675 111.085L186.517 120.698Z" fill="#3F3D56"/>
<path d="M43.6766 122.468C43.6766 128.024 40.3743 129.963 36.2997 129.963C36.2055 129.963 36.1113 129.962 36.0182 129.96C35.8288 129.956 35.6424 129.947 35.457 129.933C31.78 129.674 28.9238 127.635 28.9238 122.468C28.9238 117.119 35.7624 110.368 36.27 109.874L36.271 109.873C36.2898 109.855 36.2997 109.846 36.2997 109.846C36.2997 109.846 43.6766 116.913 43.6766 122.468Z" fill="#00BF71"/>
<path d="M36.0309 129.113L38.7294 125.344L36.0249 129.527L36.018 129.96C35.8286 129.956 35.6423 129.947 35.4569 129.933L35.7473 124.376L35.7454 124.333L35.7503 124.325L35.7781 123.8L33.0667 119.607L35.786 123.407L35.7929 123.518L36.012 119.318L33.6912 114.985L36.0408 118.581L36.2698 109.874L36.2708 109.846V109.873L36.2321 116.74L38.543 114.018L36.2222 117.332L36.1617 121.091L38.319 117.483L36.1528 121.644L36.1191 123.735L39.2509 118.713L36.1072 124.464L36.0309 129.113Z" fill="#3F3D56"/>
<path d="M171.786 126.117C171.786 131.673 168.483 133.612 164.409 133.612C164.315 133.612 164.22 133.611 164.127 133.609C163.938 133.605 163.752 133.596 163.566 133.582C159.889 133.324 157.033 131.284 157.033 126.117C157.033 120.769 163.871 114.017 164.379 113.524L164.38 113.523C164.399 113.504 164.409 113.495 164.409 113.495C164.409 113.495 171.786 120.563 171.786 126.117Z" fill="#00BF71"/>
<path d="M164.14 132.762L166.839 128.993L164.134 133.176L164.127 133.609C163.938 133.605 163.752 133.596 163.566 133.582L163.857 128.026L163.855 127.982L163.86 127.974L163.887 127.45L161.176 123.256L163.895 127.056L163.902 127.167L164.121 122.968L161.801 118.634L164.15 122.23L164.379 113.524L164.38 113.495V113.523L164.341 120.389L166.652 117.668L164.332 120.981L164.271 124.74L166.428 121.133L164.262 125.293L164.228 127.384L167.36 122.362L164.217 128.113L164.14 132.762Z" fill="#3F3D56"/>
</g>
<defs>
<clipPath id="clip0">
<rect width="214.099" height="147.391" fill="white"/>
</clipPath>
</defs>
</svg>
